<?xml version="1.0" standalone="no"?>
<!DOCTYPE svg PUBLIC "-//W3C//DTD SVG 20010904//EN"
 "http://www.w3.org/TR/2001/REC-SVG-20010904/DTD/svg10.dtd">
<svg version="1.0" xmlns="http://www.w3.org/2000/svg"
 width="120.000000pt" height="120.000000pt" viewBox="0 0 120.000000 120.000000"
 preserveAspectRatio="xMidYMid meet">
<metadata>
Created by potrace 1.11, written by Peter Selinger 2001-2013
</metadata>
<g transform="translate(0.000000,120.000000) scale(0.100000,-0.100000)"
fill="#000000" stroke="none">
<path d="M630 835 c0 -279 0 -285 19 -275 48 25 130 -4 153 -55 13 -30 20 -31
41 -7 15 16 16 52 14 318 l-2 299 -112 3 -113 3 0 -286z"/>
<path d="M350 865 l0 -95 26 10 c61 24 133 5 172 -45 11 -14 21 -25 23 -25 2
0 3 56 1 125 l-3 125 -110 0 -109 0 0 -95z"/>
<path d="M80 660 l0 -151 22 15 c26 18 80 21 109 6 15 -9 26 -6 53 15 32 24
34 28 24 57 -8 22 -8 44 0 77 6 25 13 64 14 86 l3 40 -113 3 -112 3 0 -151z"/>
<path d="M407 729 c-48 -13 -57 -27 -57 -89 0 -51 3 -61 26 -79 63 -49 154 0
154 83 0 31 -42 82 -73 88 -12 2 -35 1 -50 -3z"/>
<path d="M970 606 c0 -2 7 -7 16 -10 8 -3 12 -2 9 4 -6 10 -25 14 -25 6z"/>
<path d="M1093 566 c-17 -19 -41 -41 -53 -49 -22 -15 -21 -15 25 -59 26 -23
51 -44 56 -46 5 -2 9 39 9 92 0 53 -1 96 -2 96 -2 0 -17 -16 -35 -34z m8 -103
c13 -17 13 -17 -6 -3 -11 8 -22 16 -24 17 -2 2 0 3 6 3 6 0 17 -8 24 -17z"/>
<path d="M925 560 c-3 -6 1 -7 10 -4 8 4 22 1 30 -6 9 -7 15 -8 15 -2 0 19
-45 29 -55 12z"/>
<path d="M274 519 c-14 -16 -18 -33 -16 -68 4 -56 -21 -94 -73 -111 -29 -9
-41 -9 -66 4 -18 9 -34 16 -36 16 -1 0 -3 -58 -3 -130 l0 -130 113 0 112 0 0
220 c0 121 -3 220 -6 220 -3 0 -14 -9 -25 -21z"/>
<path d="M515 510 c-13 -22 -82 -31 -124 -16 l-41 14 0 -204 0 -204 110 0 110
0 0 193 c0 175 -2 196 -18 210 -21 20 -28 21 -37 7z"/>
<path d="M647 502 c-23 -25 -22 -85 1 -105 44 -40 122 -7 122 51 0 59 -85 96
-123 54z"/>
<path d="M128 494 c-35 -19 -45 -56 -24 -89 31 -47 97 -41 116 11 12 31 -4 68
-37 83 -28 13 -22 14 -55 -5z"/>
<path d="M968 457 c-16 -6 -28 -14 -28 -19 0 -4 -7 -8 -15 -8 -13 0 -15 -25
-15 -165 l0 -165 110 0 110 0 0 129 0 129 -64 56 c-35 31 -66 56 -68 55 -1 -1
-15 -6 -30 -12z m32 -11 c0 -2 -7 -7 -16 -10 -8 -3 -12 -2 -9 4 6 10 25 14 25
6z m110 -93 c0 -2 -13 4 -29 13 -17 10 -28 21 -25 25 4 7 54 -29 54 -38z m-59
-26 c-10 -9 -11 -8 -5 6 3 10 9 15 12 12 3 -3 0 -11 -7 -18z"/>
<path d="M826 444 c-9 -8 -16 -22 -16 -29 0 -7 -12 -27 -26 -44 -29 -35 -83
-49 -126 -33 l-28 10 0 -124 0 -124 116 0 116 0 -3 180 c-2 99 -7 180 -11 180
-3 0 -14 -7 -22 -16z"/>
<path d="M910 450 c0 -5 5 -10 11 -10 5 0 7 5 4 10 -3 6 -8 10 -11 10 -2 0 -4
-4 -4 -10z"/>
</g>
</svg>
